<?xml version="1.0" encoding="UTF-8" standalone="no"?>
<!DOCTYPE svg PUBLIC "-//W3C//DTD SVG 1.1//EN" "http://www.w3.org/Graphics/SVG/1.1/DTD/svg11.dtd">
<svg version="1.1" xmlns="http://www.w3.org/2000/svg" xmlns:xlink="http://www.w3.org/1999/xlink" preserveAspectRatio="xMidYMid meet" viewBox="0 0 640 640" width="640" height="640"><defs><path d="M500 450L300 550L100 450L100 200L300 100L500 200" id="c7Pnh69Gi"></path><path d="" id="e1q94Rp9Gn"></path><path d="M323.97 100C323.97 113.23 313.23 123.97 300 123.97C286.77 123.97 276.03 113.23 276.03 100C276.03 86.77 286.77 76.03 300 76.03C313.23 76.03 323.97 86.77 323.97 100Z" id="agL2CyDRG"></path><path d="M300 550L300 300L100 200" id="g16l8t4mI"></path><path d="M300 300L500 200" id="f2vy4ir1Qx"></path><path d="M523.97 200C523.97 213.23 513.23 223.97 500 223.97C486.77 223.97 476.03 213.23 476.03 200C476.03 186.77 486.77 176.03 500 176.03C513.23 176.03 523.97 186.77 523.97 200Z" id="c3l4BJJwIZ"></path><path d="M123.97 200C123.97 213.23 113.23 223.97 100 223.97C86.77 223.97 76.03 213.23 76.03 200C76.03 186.77 86.77 176.03 100 176.03C113.23 176.03 123.97 186.77 123.97 200Z" id="b3wfeW6UbU"></path><path d="M323.97 550C323.97 563.23 313.23 573.97 300 573.97C286.77 573.97 276.03 563.23 276.03 550C276.03 536.77 286.77 526.03 300 526.03C313.23 526.03 323.97 536.77 323.97 550Z" id="a2gMBk3vQ3"></path><path d="M323.97 300C323.97 313.23 313.23 323.97 300 323.97C286.77 323.97 276.03 313.23 276.03 300C276.03 286.77 286.77 276.03 300 276.03C313.23 276.03 323.97 286.77 323.97 300Z" id="e10Ki9VN7Z"></path><path d="M123.97 450C123.97 463.23 113.23 473.97 100 473.97C86.77 473.97 76.03 463.23 76.03 450C76.03 436.77 86.77 426.03 100 426.03C113.23 426.03 123.97 436.77 123.97 450Z" id="c23jPPyQho"></path><path d="M523.97 450C523.97 463.23 513.23 473.97 500 473.97C486.77 473.97 476.03 463.23 476.03 450C476.03 436.77 486.77 426.03 500 426.03C513.23 426.03 523.97 436.77 523.97 450Z" id="a1CIqUML18"></path></defs><g><g><g><g><use xlink:href="#c7Pnh69Gi" opacity="1" fill-opacity="0" stroke="#ff5d00" stroke-width="34.56" stroke-opacity="1"></use></g></g><g><g><use xlink:href="#e1q94Rp9Gn" opacity="1" fill-opacity="0" stroke="#ff5d00" stroke-width="0" stroke-opacity="1"></use></g></g><g><use xlink:href="#agL2CyDRG" opacity="1" fill="#ff5d00" fill-opacity="1"></use><g><use xlink:href="#agL2CyDRG" opacity="1" fill-opacity="0" stroke="#ff5d00" stroke-width="0" stroke-opacity="1"></use></g></g><g><g><g><use xlink:href="#g16l8t4mI" opacity="1" fill-opacity="0" stroke="#ff5d00" stroke-width="40" stroke-opacity="1"></use></g></g><g><g><use xlink:href="#f2vy4ir1Qx" opacity="1" fill-opacity="0" stroke="#ff5d00" stroke-width="40" stroke-opacity="1"></use></g></g></g><g><use xlink:href="#c3l4BJJwIZ" opacity="1" fill="#ff5d00" fill-opacity="1"></use><g><use xlink:href="#c3l4BJJwIZ" opacity="1" fill-opacity="0" stroke="#ff5d00" stroke-width="0" stroke-opacity="1"></use></g></g><g><use xlink:href="#b3wfeW6UbU" opacity="1" fill="#ff5d00" fill-opacity="1"></use><g><use xlink:href="#b3wfeW6UbU" opacity="1" fill-opacity="0" stroke="#ff5d00" stroke-width="0" stroke-opacity="1"></use></g></g><g><use xlink:href="#a2gMBk3vQ3" opacity="1" fill="#ff5d00" fill-opacity="1"></use><g><use xlink:href="#a2gMBk3vQ3" opacity="1" fill-opacity="0" stroke="#ff5d00" stroke-width="0" stroke-opacity="1"></use></g></g><g><use xlink:href="#e10Ki9VN7Z" opacity="1" fill="#ff5d00" fill-opacity="1"></use><g><use xlink:href="#e10Ki9VN7Z" opacity="1" fill-opacity="0" stroke="#ff5d00" stroke-width="0" stroke-opacity="1"></use></g></g><g><use xlink:href="#c23jPPyQho" opacity="1" fill="#ff5d00" fill-opacity="1"></use><g><use xlink:href="#c23jPPyQho" opacity="1" fill-opacity="0" stroke="#ff5d00" stroke-width="0" stroke-opacity="1"></use></g></g><g><use xlink:href="#a1CIqUML18" opacity="1" fill="#ff5d00" fill-opacity="1"></use><g><use xlink:href="#a1CIqUML18" opacity="1" fill-opacity="0" stroke="#ff5d00" stroke-width="0" stroke-opacity="1"></use></g></g></g></g></svg>